<mxfile host="Electron" agent="Mozilla/5.0 (Windows NT 10.0; Win64; x64) AppleWebKit/537.36 (KHTML, like Gecko) draw.io/27.0.2 Chrome/134.0.6998.205 Electron/35.3.0 Safari/537.36" version="27.0.2">
  <diagram name="Seite-1" id="cjZjgAnnB-NVIbWVg8PO">
    <mxGraphModel dx="882" dy="610" grid="1" gridSize="10" guides="1" tooltips="1" connect="1" arrows="1" fold="1" page="1" pageScale="1" pageWidth="827" pageHeight="1169" math="0" shadow="0">
      <root>
        <mxCell id="0" />
        <mxCell id="1" parent="0" />
        <mxCell id="3rMxnj65HS-TyVWUYs4o-1" value="Room" style="swimlane;fontStyle=1;align=center;verticalAlign=top;childLayout=stackLayout;horizontal=1;startSize=30.104233685661764;horizontalStack=0;resizeParent=1;resizeParentMax=0;resizeLast=0;collapsible=0;marginBottom=0;" vertex="1" parent="1">
          <mxGeometry x="20" y="140" width="218" height="255.10423368566177" as="geometry" />
        </mxCell>
        <mxCell id="3rMxnj65HS-TyVWUYs4o-2" value="UUID id" style="text;strokeColor=none;fillColor=none;align=left;verticalAlign=top;spacingLeft=4;spacingRight=4;overflow=hidden;rotatable=0;points=[[0,0.5],[1,0.5]];portConstraint=eastwest;" vertex="1" parent="3rMxnj65HS-TyVWUYs4o-1">
          <mxGeometry y="30.104233685661764" width="218" height="30" as="geometry" />
        </mxCell>
        <mxCell id="3rMxnj65HS-TyVWUYs4o-3" value="int roomNumber" style="text;strokeColor=none;fillColor=none;align=left;verticalAlign=top;spacingLeft=4;spacingRight=4;overflow=hidden;rotatable=0;points=[[0,0.5],[1,0.5]];portConstraint=eastwest;" vertex="1" parent="3rMxnj65HS-TyVWUYs4o-1">
          <mxGeometry y="60.10423368566177" width="218" height="30" as="geometry" />
        </mxCell>
        <mxCell id="3rMxnj65HS-TyVWUYs4o-4" value="String name" style="text;strokeColor=none;fillColor=none;align=left;verticalAlign=top;spacingLeft=4;spacingRight=4;overflow=hidden;rotatable=0;points=[[0,0.5],[1,0.5]];portConstraint=eastwest;" vertex="1" parent="3rMxnj65HS-TyVWUYs4o-1">
          <mxGeometry y="90.10423368566177" width="218" height="30" as="geometry" />
        </mxCell>
        <mxCell id="3rMxnj65HS-TyVWUYs4o-5" value="boolean hasTouchscreen" style="text;strokeColor=none;fillColor=none;align=left;verticalAlign=top;spacingLeft=4;spacingRight=4;overflow=hidden;rotatable=0;points=[[0,0.5],[1,0.5]];portConstraint=eastwest;" vertex="1" parent="3rMxnj65HS-TyVWUYs4o-1">
          <mxGeometry y="120.10423368566177" width="218" height="30" as="geometry" />
        </mxCell>
        <mxCell id="3rMxnj65HS-TyVWUYs4o-6" value="boolean hasWhiteboard" style="text;strokeColor=none;fillColor=none;align=left;verticalAlign=top;spacingLeft=4;spacingRight=4;overflow=hidden;rotatable=0;points=[[0,0.5],[1,0.5]];portConstraint=eastwest;" vertex="1" parent="3rMxnj65HS-TyVWUYs4o-1">
          <mxGeometry y="150.10423368566177" width="218" height="30" as="geometry" />
        </mxCell>
        <mxCell id="3rMxnj65HS-TyVWUYs4o-7" value="boolean hasBeamer" style="text;strokeColor=none;fillColor=none;align=left;verticalAlign=top;spacingLeft=4;spacingRight=4;overflow=hidden;rotatable=0;points=[[0,0.5],[1,0.5]];portConstraint=eastwest;" vertex="1" parent="3rMxnj65HS-TyVWUYs4o-1">
          <mxGeometry y="180.10423368566177" width="218" height="30" as="geometry" />
        </mxCell>
        <mxCell id="3rMxnj65HS-TyVWUYs4o-8" value="boolean hasCamera" style="text;strokeColor=none;fillColor=none;align=left;verticalAlign=top;spacingLeft=4;spacingRight=4;overflow=hidden;rotatable=0;points=[[0,0.5],[1,0.5]];portConstraint=eastwest;" vertex="1" parent="3rMxnj65HS-TyVWUYs4o-1">
          <mxGeometry y="210.10423368566177" width="218" height="30" as="geometry" />
        </mxCell>
        <mxCell id="3rMxnj65HS-TyVWUYs4o-9" style="line;strokeWidth=1;fillColor=none;align=left;verticalAlign=middle;spacingTop=-1;spacingLeft=3;spacingRight=3;rotatable=0;labelPosition=right;points=[];portConstraint=eastwest;strokeColor=inherit;" vertex="1" parent="3rMxnj65HS-TyVWUYs4o-1">
          <mxGeometry y="240.10423368566177" width="218" height="15" as="geometry" />
        </mxCell>
        <mxCell id="3rMxnj65HS-TyVWUYs4o-10" value="Reservation" style="swimlane;fontStyle=1;align=center;verticalAlign=top;childLayout=stackLayout;horizontal=1;startSize=29.460179379111842;horizontalStack=0;resizeParent=1;resizeParentMax=0;resizeLast=0;collapsible=0;marginBottom=0;" vertex="1" parent="1">
          <mxGeometry x="147" y="476" width="200" height="276.4601793791119" as="geometry" />
        </mxCell>
        <mxCell id="3rMxnj65HS-TyVWUYs4o-11" value="UUID id" style="text;strokeColor=none;fillColor=none;align=left;verticalAlign=top;spacingLeft=4;spacingRight=4;overflow=hidden;rotatable=0;points=[[0,0.5],[1,0.5]];portConstraint=eastwest;" vertex="1" parent="3rMxnj65HS-TyVWUYs4o-10">
          <mxGeometry y="29.460179379111842" width="200" height="29" as="geometry" />
        </mxCell>
        <mxCell id="3rMxnj65HS-TyVWUYs4o-12" value="LocalDate date" style="text;strokeColor=none;fillColor=none;align=left;verticalAlign=top;spacingLeft=4;spacingRight=4;overflow=hidden;rotatable=0;points=[[0,0.5],[1,0.5]];portConstraint=eastwest;" vertex="1" parent="3rMxnj65HS-TyVWUYs4o-10">
          <mxGeometry y="58.46017937911184" width="200" height="29" as="geometry" />
        </mxCell>
        <mxCell id="3rMxnj65HS-TyVWUYs4o-13" value="LocalTime from" style="text;strokeColor=none;fillColor=none;align=left;verticalAlign=top;spacingLeft=4;spacingRight=4;overflow=hidden;rotatable=0;points=[[0,0.5],[1,0.5]];portConstraint=eastwest;" vertex="1" parent="3rMxnj65HS-TyVWUYs4o-10">
          <mxGeometry y="87.46017937911185" width="200" height="29" as="geometry" />
        </mxCell>
        <mxCell id="3rMxnj65HS-TyVWUYs4o-14" value="LocalTime to" style="text;strokeColor=none;fillColor=none;align=left;verticalAlign=top;spacingLeft=4;spacingRight=4;overflow=hidden;rotatable=0;points=[[0,0.5],[1,0.5]];portConstraint=eastwest;" vertex="1" parent="3rMxnj65HS-TyVWUYs4o-10">
          <mxGeometry y="116.46017937911185" width="200" height="29" as="geometry" />
        </mxCell>
        <mxCell id="3rMxnj65HS-TyVWUYs4o-15" value="String remark" style="text;strokeColor=none;fillColor=none;align=left;verticalAlign=top;spacingLeft=4;spacingRight=4;overflow=hidden;rotatable=0;points=[[0,0.5],[1,0.5]];portConstraint=eastwest;" vertex="1" parent="3rMxnj65HS-TyVWUYs4o-10">
          <mxGeometry y="145.46017937911185" width="200" height="29" as="geometry" />
        </mxCell>
        <mxCell id="3rMxnj65HS-TyVWUYs4o-16" value="String participants" style="text;strokeColor=none;fillColor=none;align=left;verticalAlign=top;spacingLeft=4;spacingRight=4;overflow=hidden;rotatable=0;points=[[0,0.5],[1,0.5]];portConstraint=eastwest;" vertex="1" parent="3rMxnj65HS-TyVWUYs4o-10">
          <mxGeometry y="174.46017937911185" width="200" height="29" as="geometry" />
        </mxCell>
        <mxCell id="3rMxnj65HS-TyVWUYs4o-17" value="String publicKey" style="text;strokeColor=none;fillColor=none;align=left;verticalAlign=top;spacingLeft=4;spacingRight=4;overflow=hidden;rotatable=0;points=[[0,0.5],[1,0.5]];portConstraint=eastwest;" vertex="1" parent="3rMxnj65HS-TyVWUYs4o-10">
          <mxGeometry y="203.46017937911185" width="200" height="29" as="geometry" />
        </mxCell>
        <mxCell id="3rMxnj65HS-TyVWUYs4o-18" value="String privateKey" style="text;strokeColor=none;fillColor=none;align=left;verticalAlign=top;spacingLeft=4;spacingRight=4;overflow=hidden;rotatable=0;points=[[0,0.5],[1,0.5]];portConstraint=eastwest;" vertex="1" parent="3rMxnj65HS-TyVWUYs4o-10">
          <mxGeometry y="232.46017937911185" width="200" height="29" as="geometry" />
        </mxCell>
        <mxCell id="3rMxnj65HS-TyVWUYs4o-19" style="line;strokeWidth=1;fillColor=none;align=left;verticalAlign=middle;spacingTop=-1;spacingLeft=3;spacingRight=3;rotatable=0;labelPosition=right;points=[];portConstraint=eastwest;strokeColor=inherit;" vertex="1" parent="3rMxnj65HS-TyVWUYs4o-10">
          <mxGeometry y="261.4601793791119" width="200" height="15" as="geometry" />
        </mxCell>
        <mxCell id="3rMxnj65HS-TyVWUYs4o-20" value="User" style="swimlane;fontStyle=1;align=center;verticalAlign=top;childLayout=stackLayout;horizontal=1;startSize=33.44158658114347;horizontalStack=0;resizeParent=1;resizeParentMax=0;resizeLast=0;collapsible=0;marginBottom=0;" vertex="1" parent="1">
          <mxGeometry x="288" y="176" width="157" height="182.44158658114347" as="geometry" />
        </mxCell>
        <mxCell id="3rMxnj65HS-TyVWUYs4o-21" value="UUID id" style="text;strokeColor=none;fillColor=none;align=left;verticalAlign=top;spacingLeft=4;spacingRight=4;overflow=hidden;rotatable=0;points=[[0,0.5],[1,0.5]];portConstraint=eastwest;" vertex="1" parent="3rMxnj65HS-TyVWUYs4o-20">
          <mxGeometry y="33.44158658114347" width="157" height="33" as="geometry" />
        </mxCell>
        <mxCell id="3rMxnj65HS-TyVWUYs4o-22" value="String username" style="text;strokeColor=none;fillColor=none;align=left;verticalAlign=top;spacingLeft=4;spacingRight=4;overflow=hidden;rotatable=0;points=[[0,0.5],[1,0.5]];portConstraint=eastwest;" vertex="1" parent="3rMxnj65HS-TyVWUYs4o-20">
          <mxGeometry y="66.44158658114347" width="157" height="33" as="geometry" />
        </mxCell>
        <mxCell id="3rMxnj65HS-TyVWUYs4o-23" value="String email" style="text;strokeColor=none;fillColor=none;align=left;verticalAlign=top;spacingLeft=4;spacingRight=4;overflow=hidden;rotatable=0;points=[[0,0.5],[1,0.5]];portConstraint=eastwest;" vertex="1" parent="3rMxnj65HS-TyVWUYs4o-20">
          <mxGeometry y="99.44158658114347" width="157" height="33" as="geometry" />
        </mxCell>
        <mxCell id="3rMxnj65HS-TyVWUYs4o-24" value="String password" style="text;strokeColor=none;fillColor=none;align=left;verticalAlign=top;spacingLeft=4;spacingRight=4;overflow=hidden;rotatable=0;points=[[0,0.5],[1,0.5]];portConstraint=eastwest;" vertex="1" parent="3rMxnj65HS-TyVWUYs4o-20">
          <mxGeometry y="132.44158658114347" width="157" height="33" as="geometry" />
        </mxCell>
        <mxCell id="3rMxnj65HS-TyVWUYs4o-25" style="line;strokeWidth=1;fillColor=none;align=left;verticalAlign=middle;spacingTop=-1;spacingLeft=3;spacingRight=3;rotatable=0;labelPosition=right;points=[];portConstraint=eastwest;strokeColor=inherit;" vertex="1" parent="3rMxnj65HS-TyVWUYs4o-20">
          <mxGeometry y="165.44158658114347" width="157" height="17" as="geometry" />
        </mxCell>
        <mxCell id="3rMxnj65HS-TyVWUYs4o-26" value="reserves" style="startArrow=open;startSize=12;endArrow=none;exitX=0.5;exitY=1;entryX=0.03;entryY=0;rounded=0;edgeStyle=orthogonalEdgeStyle;" edge="1" parent="1" source="3rMxnj65HS-TyVWUYs4o-1" target="3rMxnj65HS-TyVWUYs4o-10">
          <mxGeometry x="-0.0191" y="-4" relative="1" as="geometry">
            <mxPoint as="offset" />
          </mxGeometry>
        </mxCell>
        <mxCell id="3rMxnj65HS-TyVWUYs4o-27" value="1" style="edgeLabel;resizable=0;labelBackgroundColor=none;fontSize=12;align=right;verticalAlign=top;" vertex="1" parent="3rMxnj65HS-TyVWUYs4o-26">
          <mxGeometry x="-1" relative="1" as="geometry">
            <mxPoint x="11" y="15" as="offset" />
          </mxGeometry>
        </mxCell>
        <mxCell id="3rMxnj65HS-TyVWUYs4o-28" value="*" style="edgeLabel;resizable=0;labelBackgroundColor=none;fontSize=12;align=left;verticalAlign=bottom;" vertex="1" parent="3rMxnj65HS-TyVWUYs4o-26">
          <mxGeometry x="1" relative="1" as="geometry" />
        </mxCell>
        <mxCell id="3rMxnj65HS-TyVWUYs4o-29" value="createdBy" style="startArrow=open;startSize=12;endArrow=none;exitX=0.5;exitY=1;entryX=0.98;entryY=0;rounded=0;edgeStyle=orthogonalEdgeStyle;" edge="1" parent="1" source="3rMxnj65HS-TyVWUYs4o-20" target="3rMxnj65HS-TyVWUYs4o-10">
          <mxGeometry relative="1" as="geometry" />
        </mxCell>
        <mxCell id="3rMxnj65HS-TyVWUYs4o-30" value="1" style="edgeLabel;resizable=0;labelBackgroundColor=none;fontSize=12;align=right;verticalAlign=top;" vertex="1" parent="3rMxnj65HS-TyVWUYs4o-29">
          <mxGeometry x="-1" relative="1" as="geometry">
            <mxPoint x="14" y="12" as="offset" />
          </mxGeometry>
        </mxCell>
        <mxCell id="3rMxnj65HS-TyVWUYs4o-31" value="*" style="edgeLabel;resizable=0;labelBackgroundColor=none;fontSize=12;align=left;verticalAlign=bottom;" vertex="1" parent="3rMxnj65HS-TyVWUYs4o-29">
          <mxGeometry x="1" relative="1" as="geometry" />
        </mxCell>
      </root>
    </mxGraphModel>
  </diagram>
</mxfile>
